# xmcd
#
# Track frame offsets: 
#        150
#        14577
#        27170
#        46036
#        59758
#        74005
#        92594
#        109199
#        123922
#        137616
#        157981
#
# Disc length: 2401 seconds
#
# Revision: 4
# Processed by: cddbd v1.5.2PL0 Copyright (c) Steve Scherf et al.
# Submitted via: ExactAudioCopy v1.1
#
DISCID=92095f0b
DTITLE=Kenny Chesney - The Big Revival
DYEAR=2014
DGENRE=Country
TTITLE0=The Big Revival
TTITLE1=Drink It Up
TTITLE2=Til It's Gone
TTITLE3=American Kids
TTITLE4=Wild Child (With Grace Potter)
TTITLE5=Beer Can Chicken
TTITLE6=Rock Bottom
TTITLE7=Don't It
TTITLE8=Save It For A Rainy Day
TTITLE9=Flora-Bama
TTITLE10=If This Bus Could Talk
EXTD=YEAR: 2014
EXTT0=
EXTT1=
EXTT2=
EXTT3=
EXTT4=
EXTT5=
EXTT6=
EXTT7=
EXTT8=
EXTT9=
EXTT10=
PLAYORDER=
